<?xml version="1.0" encoding="UTF-8"?>
<svg width="109px" height="138px" viewBox="0 0 109 138" version="1.1" xmlns="http://www.w3.org/2000/svg" xmlns:xlink="http://www.w3.org/1999/xlink">
    <title>Semibold-L</title>
    <g id="Page-1" stroke="none" stroke-width="1" fill="none" fill-rule="evenodd">
        <g id="doc.append.fill" transform="translate(-1989.000000, -1452.000000)" fill="#000000" fill-rule="nonzero">
            <g id="Symbols" transform="translate(509.637500, 617.435500)">
                <g id="Semibold-L" transform="translate(1479.527000, 835.048500)">
                    <path d="M37.7929,63.6722 C33.9192333,63.6722 30.6396333,62.3050333 27.9541,59.5707 C25.2685,56.8363 23.9257,52.9951333 23.9257,48.0472 C23.9257,45.4430667 24.3651667,42.9528333 25.2441,40.5765 C26.1230333,38.2002333 27.4251,36.0843667 29.1503,34.2289 C30.9081667,32.3409 32.9345333,30.8435 35.2294,29.7367 C37.5243333,28.6299 39.6809333,28.0765 41.6992,28.0765 C43.4244667,28.0765 44.2871,28.7764 44.2871,30.1762 C44.2871,30.8923333 44.0673667,31.4375667 43.6279,31.8119 C43.1884333,32.1862333 42.4967,32.4710667 41.5527,32.6664 C40.0878333,32.9268 38.7369333,33.3581 37.5,33.9603 C36.263,34.5625667 35.1236667,35.3031333 34.082,36.182 C33.0403333,37.126 32.1695667,38.1351333 31.4697,39.2094 C30.7698333,40.2836 30.3059667,41.3740667 30.0781,42.4808 L31.2988,42.4808 C32.2753333,41.3089333 33.4390667,40.4381667 34.79,39.8685 C36.1409333,39.2988333 37.6464667,39.014 39.3066,39.014 C42.5943333,39.014 45.2798667,40.1208 47.3632,42.3344 C49.4465333,44.5479333 50.4882,47.4613333 50.4882,51.0746 C50.4882,53.5485333 49.9429667,55.7295333 48.8525,57.6176 C47.7619667,59.5056 46.2564333,60.9867 44.3359,62.0609 C42.4153,63.1351 40.2343,63.6722 37.7929,63.6722 Z M71.6308,63.6234 C67.7245333,63.6234 64.4286333,62.2562333 61.7431,59.5219 C59.0575667,56.7875 57.7148,52.9626 57.7148,48.0472 C57.7148,45.4105333 58.1624,42.9040333 59.0576,40.5277 C59.9527333,38.1514333 61.2629333,36.0355667 62.9882,34.1801 C64.6809333,32.3571667 66.6829,30.8760333 68.9941,29.7367 C71.3053,28.5973667 73.4863,28.0277 75.5371,28.0277 C77.2623667,28.0277 78.125,28.7275667 78.125,30.1273 C78.125,30.8109 77.9134,31.3480333 77.4902,31.7387 C77.067,32.1293 76.3671333,32.4222667 75.3906,32.6176 C73.9257333,32.9105333 72.5748,33.3499667 71.3378,33.9359 C70.1008667,34.5218333 68.9778333,35.2705333 67.9687,36.182 C66.8619,37.126 65.9667333,38.1351333 65.2832,39.2094 C64.5996,40.2836 64.1438667,41.3578 63.916,42.432 L65.1367,42.432 C66.1132333,41.2601333 67.2769667,40.3893667 68.6279,39.8197 C69.9788333,39.2500333 71.4843667,38.9652 73.1445,38.9652 C76.3997,38.9652 79.0689667,40.0719667 81.1523,42.2855 C83.2357667,44.4990333 84.2775,47.4124667 84.2775,51.0258 C84.2775,53.4997333 83.7403333,55.6807 82.666,57.5687 C81.5917333,59.4567667 80.0943333,60.9379 78.1738,62.0121 C76.2532,63.0863 74.0722,63.6234 71.6308,63.6234 Z M29.2968,85.0101 C28.1249333,85.0101 27.1728,84.6357667 26.4404,83.8871 C25.7079333,83.1383667 25.3417,82.2106333 25.3417,81.1039 C25.3417,80.0622333 25.7079333,79.1670333 26.4404,78.4183 C27.1728,77.6696333 28.1249333,77.2953 29.2968,77.2953 L79.0039,77.2953 C80.1106333,77.2953 81.0302,77.6696333 81.7626,78.4183 C82.4950667,79.1670333 82.8613,80.0622333 82.8613,81.1039 C82.8613,82.2106333 82.4950667,83.1383667 81.7626,83.8871 C81.0302,84.6357667 80.1106333,85.0101 79.0039,85.0101 L29.2968,85.0101 Z M29.2968,106.25038 C28.1249333,106.25038 27.1728,105.884167 26.4404,105.15174 C25.7079333,104.419319 25.3417,103.515999 25.3417,102.44178 C25.3417,101.36756 25.7079333,100.456103 26.4404,99.70741 C27.1728,98.95871 28.1249333,98.58436 29.2968,98.58436 L54.3945,98.58436 C55.5012333,98.58436 56.4289667,98.95871 57.1777,99.70741 C57.9263667,100.456103 58.3007,101.36756 58.3007,102.44178 C58.3007,103.515999 57.9263667,104.419319 57.1777,105.15174 C56.4289667,105.884167 55.5012333,106.25038 54.3945,106.25038 L29.2968,106.25038 Z M3.55271368e-15,116.0648 C3.55271368e-15,122.770533 1.72523333,127.873067 5.1757,131.3724 C8.62623333,134.8718 13.7043667,136.6215 20.4101,136.6215 L87.7925,136.6215 C94.4658333,136.6215 99.5358333,134.8718 103.0025,131.3724 C106.469833,127.873067 108.2035,122.770533 108.2035,116.0648 L108.2035,20.557 C108.2035,13.8512667 106.469833,8.74873333 103.0025,5.2494 C99.5358333,1.7498 94.4658333,0 87.7925,0 L20.4101,0 C13.7043667,0 8.62623333,1.7498 5.1757,5.2494 C1.72523333,8.74873333 3.55271368e-15,13.8512667 3.55271368e-15,20.557 L3.55271368e-15,116.0648 Z" id="Shape"></path>
                </g>
            </g>
        </g>
    </g>
</svg>