<?xml version="1.0" encoding="UTF-8"?>
<svg width="103px" height="103px" viewBox="0 0 103 103" version="1.1" xmlns="http://www.w3.org/2000/svg" xmlns:xlink="http://www.w3.org/1999/xlink">
    <title>Semibold-M</title>
    <g id="Page-1" stroke="none" stroke-width="1" fill="none" fill-rule="evenodd">
        <g id="xmark.circle.fill" transform="translate(-1992.000000, -1039.000000)" fill="#000000" fill-rule="nonzero">
            <g id="Symbols" transform="translate(498.871300, 618.802700)">
                <g id="Semibold-M" transform="translate(1493.468930, 421.015700)">
                    <path d="M50.92777,101.8554 C57.8939033,101.8554 64.4531367,100.5289 70.60547,97.8759 C76.7578033,95.2229267 82.1777367,91.5526913 86.86527,86.865194 C91.5529367,82.1776913 95.2231033,76.7658933 97.87577,70.6298 C100.529103,64.4937333 101.85577,57.9263667 101.85577,50.9277 C101.85577,43.9615667 100.529103,37.4104667 97.87577,31.2744 C95.2231033,25.1383333 91.5529367,19.7265333 86.86527,15.039 C82.1777367,10.3515333 76.7578033,6.67316667 70.60547,4.0039 C64.4531367,1.33463333 57.8776033,0 50.87887,0 C43.9127367,0 37.3616367,1.33463333 31.22557,4.0039 C25.0895033,6.67316667 19.6777367,10.3515333 14.99027,15.039 C10.3027367,19.7265333 6.63247,25.1383333 3.97947,31.2744 C1.32649,37.4104667 3.55271368e-15,43.9615667 3.55271368e-15,50.9277 C3.55271368e-15,57.9263667 1.32649,64.4937333 3.97947,70.6298 C6.63247,76.7658933 10.3027367,82.1776913 14.99027,86.865194 C19.6777367,91.5526913 25.0976367,95.2229267 31.24997,97.8759 C37.40237,100.5289 43.9616367,101.8554 50.92777,101.8554 Z M34.61917,72.2656 C33.2194367,72.2656 32.0394033,71.7773 31.07907,70.8007 C30.1188033,69.8241667 29.63867,68.6197667 29.63867,67.1875 C29.63867,65.8203 30.12697,64.6647 31.10357,63.7207 L43.79887,50.9765 L31.10357,38.2812 C30.12697,37.3046667 29.63867,36.1490667 29.63867,34.8144 C29.63867,33.3821333 30.1188033,32.1858333 31.07907,31.2255 C32.0394033,30.2652333 33.2194367,29.7851 34.61917,29.7851 C36.11657,29.7851 37.33727,30.2734 38.28127,31.25 L50.92777,43.8964 L63.72067,31.2011 C64.69727,30.2245667 65.9017033,29.7363 67.33397,29.7363 C68.7337033,29.7363 69.9137367,30.2164333 70.87407,31.1767 C71.8343367,32.1369667 72.31447,33.317 72.31447,34.7168 C72.31447,36.0514 71.82617,37.2395333 70.84957,38.2812 L58.10547,50.9765 L70.80077,63.6718 C71.77737,64.6809333 72.26567,65.8528333 72.26567,67.1875 C72.26567,68.6197667 71.7855033,69.8241667 70.82517,70.8007 C69.8649033,71.7773 68.6686367,72.2656 67.23637,72.2656 C65.8366367,72.2656 64.6159367,71.7610333 63.57427,70.7519 L50.92777,58.1543 L38.37887,70.7519 C37.3698033,71.7610333 36.11657,72.2656 34.61917,72.2656 Z" id="Shape"></path>
                </g>
            </g>
        </g>
    </g>
</svg>