<?xml version="1.0" encoding="UTF-8"?>
<svg width="400px" height="103px" viewBox="0 0 400 103" version="1.1" xmlns="http://www.w3.org/2000/svg" xmlns:xlink="http://www.w3.org/1999/xlink">
    <title>kids4kids-logo</title>
    <defs>
        <polygon id="path-1" points="3.1329106e-15 7.77156117e-16 72.6218182 7.77156117e-16 72.6218182 91.9058073 3.1329106e-15 91.9058073"></polygon>
    </defs>
    <g id="Page-1" stroke="none" stroke-width="1" fill="none" fill-rule="evenodd">
        <g id="kids4kids-logo" transform="translate(0.000000, 0.827343)">
            <path d="M398.324,27.0131059 C397.589454,25.6975503 396.562182,24.6779947 395.23309,23.9690565 C393.920364,23.2674269 392.57309,22.9093035 391.185818,22.9093035 C389.798546,22.9093035 388.442182,23.2674269 387.129454,23.9690565 C385.798546,24.6779947 384.77309,25.6975503 384.031272,27.0131059 C383.29491,28.3268343 382.931272,29.7081677 382.931272,31.1351799 C382.931272,32.5530565 383.29491,33.9179453 384.024,35.2188837 C384.742182,36.5253035 385.767636,37.5448589 387.078546,38.2611059 C388.39309,38.9883157 389.758546,39.3500935 391.185818,39.3500935 C392.61491,39.3500935 393.978546,38.9883157 395.29309,38.2611059 C396.598546,37.5448589 397.61309,36.5253035 398.331272,35.2188837 C399.058546,33.9179453 399.422182,32.5530565 399.422182,31.1351799 C399.422182,29.7081677 399.058546,28.3268343 398.324,27.0131059 M397.151272,34.5373527 C396.55491,35.6299947 395.69491,36.4723157 394.605818,37.0844145 C393.509454,37.6928589 392.376728,37.9888589 391.185818,37.9888589 C389.996728,37.9888589 388.847636,37.6928589 387.756728,37.0844145 C386.667636,36.4723157 385.81491,35.6299947 385.204,34.5373527 C384.59491,33.4538467 384.287636,32.3191799 384.287636,31.1351799 C384.287636,29.9475257 384.609454,28.7982417 385.220364,27.7037725 C385.842182,26.6001677 386.698546,25.7468837 387.798546,25.1603651 C388.891272,24.5665379 390.029454,24.2687109 391.185818,24.2687109 C392.342182,24.2687109 393.465818,24.5665379 394.564,25.1603651 C395.662182,25.7468837 396.522182,26.6001677 397.140364,27.7037725 C397.747636,28.7982417 398.058546,29.9475257 398.058546,31.1351799 C398.058546,32.3191799 397.762182,33.4538467 397.151272,34.5373527" id="Fill-1" fill="#FFFFFF" fill-rule="nonzero"></path>
            <path d="M393.416364,32.1894515 C393.227272,32.0067355 392.978182,31.8587355 392.663636,31.7253527 C393.423636,31.6687109 394.043636,31.3928095 394.50909,30.9214021 C394.96909,30.4426861 395.194546,29.8726121 395.194546,29.2257973 C395.194546,28.7726615 395.06,28.3377973 394.78909,27.9321677 C394.50909,27.5228837 394.134546,27.2396737 393.665454,27.0825379 C393.203636,26.9144393 392.45091,26.8340441 391.41091,26.8340441 L388.361818,26.8340441 L388.361818,35.6848095 L389.781818,35.6848095 L389.781818,31.9245133 L390.623636,31.9245133 C391.136364,31.9245133 391.507272,32.0250071 391.783636,32.2259947 C392.152728,32.4964145 392.64909,33.1852541 393.27091,34.2852047 L394.06,35.6848095 L395.80909,35.6848095 L394.72909,33.9490071 C394.21091,33.1286121 393.772728,32.5384393 393.416364,32.1894515 M391.525454,30.7021429 L389.781818,30.7021429 L389.781818,28.0344885 L391.416364,28.0344885 C392.11091,28.0344885 392.598182,28.0838219 392.854546,28.1824885 C393.11091,28.2829825 393.316364,28.4382911 393.465454,28.6465873 C393.605454,28.8494021 393.672728,29.0887603 393.672728,29.3500441 C393.672728,29.7556737 393.514546,30.0863899 393.227272,30.3312293 C392.92,30.5797231 392.36,30.7021429 391.525454,30.7021429" id="Fill-3" fill="#FFFFFF" fill-rule="nonzero"></path>
            <path d="M117.484182,79.1942515 L114.936909,82.7279799 L114.571455,85.3280293 L115.306,87.8933627 L117.851455,85.0758811 L117.851455,81.7869923 C117.851455,80.9702515 117.722364,80.0968689 117.484182,79.1942515" id="Fill-5" fill="#FFFFFF" fill-rule="nonzero"></path>
            <path d="M144.029818,89.0740737 L124.248,90.4919503 L116.749818,89.0740737 C117.389818,87.9156541 118.238909,87.2852837 119.322545,87.1884441 L138.911636,88.6081479 L146.769818,87.6671603 C145.998909,88.5880491 145.086182,89.0685923 144.029818,89.0740737 Z M134.489818,71.9097281 L128.633455,70.7239009 L120.591636,70.7239009 L117.688,70.2433577 L116.017091,68.6025677 L114.740727,66.2619751 L114.000727,63.4444935 L113.637091,59.9107651 L114.000727,56.3770367 L115.646182,50.4716541 L116.749818,47.9063207 L117.117091,47.9063207 L116.017091,53.7788145 L116.017091,57.5391109 L117.484364,63.6655799 L118.586182,66.2619751 L120.224364,68.1238515 L122.431636,69.3115059 L131.037091,69.7902219 L133.048,69.5325923 L138.346182,70.4955059 L139.608,72.8397527 L138.346182,74.9610861 L134.489818,71.9097281 Z M128.093455,58.4965429 C128.624364,57.2997527 129.235273,56.3514565 129.929818,55.6772343 L132.313455,53.3019257 L138.346182,50.7329379 L146.206182,50.0239997 L149.857091,50.4716541 C151.004364,50.5557035 151.617091,51.1805923 151.695273,52.3700737 L150.788,53.5485923 L144.568,52.5911603 L137.798909,53.3019257 L134.489818,54.4895799 L131.742545,56.1194071 L128.293455,59.9107651 L127.922545,59.4247405 L128.093455,58.4965429 Z M154.071636,67.6743701 L152.598909,63.8866663 L149.318909,62.4779257 L140.180727,61.0600491 L133.218909,61.3195059 L129.564364,60.6123947 L131.742545,57.7930861 L134.489818,55.8964935 L137.798909,54.4895799 L141.991636,54.2575305 L144.029818,53.7788145 L149.515273,54.7088393 C150.708,54.5626663 151.617091,54.0108639 152.266182,53.0771849 L154.266182,50.2450861 L154.638909,45.3117527 L154.266182,40.1408885 L153.340727,35.4286417 L152.797091,37.0584689 L150.788,36.6126417 L134.860727,37.7655799 L130.838909,37.5444935 L127.191636,38.4708639 L120.768,41.5496293 L118.218909,43.8993577 L114.740727,50.4716541 L112.731636,59.1945183 L113.266182,64.1516047 L114.366182,68.3814811 L116.578909,70.9504689 L120.060727,71.9097281 L127.724364,72.1271603 L135.226182,73.7734319 L136.706182,75.1839997 L136.160727,76.3753083 L132.313455,77.0787651 L118.048,76.3753083 L117.484364,78.0106169 L115.100727,80.6088393 L113.637091,83.9233083 L114.571636,89.0740737 L114.366182,90.4919503 L116.749818,90.4919503 L123.877091,91.9061725 L144.029818,90.7166911 L147.477091,89.5655799 L150.053455,87.4369379 L152.431636,84.6231109 L154.266182,81.5388639 L155.175273,76.1469133 L155.175273,71.9097281 L154.071636,67.6743701 Z" id="Fill-7" fill="#FFFFFF" fill-rule="nonzero"></path>
            <path d="M266.568,85.8604639 L264.41891,87.1906367 L257.462546,88.5482169 L257.068,88.3179947 L257.462546,87.1906367 C258.11891,86.3391799 258.902546,85.9024885 259.784364,85.8604639 L262.295272,84.9633281 L267.13709,84.5083651 L266.568,85.8604639 Z M254.340728,87.1906367 L250.673454,83.6002663 L247.586182,79.5896491 L244.864364,74.8755751 L244.864364,71.0622911 C245.491636,71.7310319 249.03709,76.5857973 255.506182,85.6338961 L256.29891,88.0895997 L254.340728,87.1906367 Z M249.706182,48.4164639 L252.026182,43.2748343 L254.340728,41.6925133 C254.21709,42.4288589 253.960728,43.0263405 253.580728,43.4977479 L249.109818,50.4427849 L249.706182,48.4164639 Z M242.155272,88.7729577 L240.19891,89.8984885 L234.768,90.5489577 L234.19891,89.8984885 L234.969818,88.7729577 L242.51891,86.9622417 L242.922546,87.6382911 L242.155272,88.7729577 Z M231.289818,48.8586367 L231.87891,46.1781923 L234.19891,42.1346861 L235.364364,43.9508837 L234.969818,46.8615503 L234.595272,87.8703405 L233.240728,88.5482169 L233.43891,87.4190319 L231.289818,48.8586367 Z M264.248,77.5615009 L253.380728,62.7615009 L253.988,61.4368095 L257.851636,56.0357231 L260.171636,53.8102417 L272.764364,36.7756245 L272.168,36.3224885 L256.29891,39.0138961 L251.071636,43.0409577 L249.706182,46.4084145 L245.629818,53.8102417 L244.275272,42.5896491 L245.03891,36.0995751 L244.469818,35.4290071 L234.595272,38.3250565 L230.322546,48.1898961 L232.448,89.4490071 L233.035272,91.9047109 L242.355272,90.7846615 L243.880728,87.6382911 L245.831636,84.9633281 L245.03891,80.9143405 L245.629818,78.0091553 L249.309818,83.6002663 L253.782546,88.3179947 L256.49709,89.8984885 L263.65891,88.5482169 C264.842546,88.3581923 265.880728,87.8977479 266.766182,87.1906367 L268.700728,84.5083651 L270.053454,83.8323157 L268.89891,82.0453527 L264.248,77.5615009 Z" id="Fill-9" fill="#FFFFFF" fill-rule="nonzero"></path>
            <path d="M373.748364,87.1540935 L354.232,90.6933035 L346.632,90.1013035 C347.135636,88.8789331 347.919272,88.1608589 348.977454,87.9397725 L368.597454,87.2308343 L376.317454,85.4365627 C375.646546,86.4488095 374.786546,87.0134021 373.748364,87.1540935 Z M344.052,86.6022911 L344.128364,83.9931059 L346.273818,80.2035751 C346.613818,81.0714763 346.837454,81.9192787 346.930182,82.7451553 L347.28291,85.9993281 L345.06109,89.0854021 L344.052,86.6022911 Z M362.388364,71.1189331 L356.437454,70.5726121 L348.448364,71.4423405 L345.499272,71.2760689 L343.666546,69.8326121 L342.137454,67.6381923 L341.104728,64.9102417 L340.352,61.4404639 L340.333818,57.9030811 L341.317454,51.8551799 L342.137454,49.1783899 L342.50109,49.1400195 L342.053818,55.0892541 L342.452,58.8239701 L344.584728,64.7604145 L345.964728,67.2197725 L347.797454,68.8989331 L350.126546,69.8399207 L358.726546,69.3794763 L360.693818,68.9172047 L366.070182,69.2954269 L367.58109,71.4807109 L366.550182,73.7262911 L362.388364,71.1189331 Z M354.570182,58.4749825 C354.959272,57.2178961 355.470182,56.2166121 356.10109,55.4638219 L358.197454,52.8436737 L363.906546,49.6370071 L371.657454,48.0894021 L375.332,48.1369083 C376.48109,48.0894021 377.157454,48.6412047 377.36291,49.8178961 L376.595636,51.1005627 L370.299272,50.8210071 L363.652,52.2516737 L360.495636,53.7974515 L357.950182,55.7141429 L354.92291,59.8563157 L354.504728,59.4177973 L354.570182,58.4749825 Z M382.950182,68.8678713 L381.395636,64.7878219 L379.519272,61.1755257 L376.110182,60.1267355 L366.864728,59.7156245 L359.966546,60.7278713 L356.266546,60.4245627 L358.124728,57.3823405 L360.64291,55.1988837 L363.78109,53.4375009 L367.92109,52.7559701 L369.897454,52.0579947 L375.455636,52.3887109 C376.62109,52.1128095 377.472,51.4623405 378.00109,50.4647109 L379.695636,47.4316245 L379.519272,42.4745379 L378.577454,37.3877231 L377.150182,32.7997231 L376.795636,34.4880195 L374.744728,34.2577973 L359.04109,37.1337479 L355.015636,37.3456985 L351.490182,38.6685627 L345.435636,42.4197231 L343.16291,45.0343899 L340.419272,51.9483651 L339.368364,60.8448095 L340.44291,65.6959207 L342.004728,69.7851059 L344.48109,72.1001183 L348.04291,72.6775009 L355.693818,72.0727109 L363.330182,72.8821429 L364.939272,74.1337479 L364.533818,75.3670811 L360.784728,76.4871305 L346.528364,77.3367603 L346.144728,79.0177479 L344.070182,81.8626367 L342.96291,85.3086615 L344.459272,90.3479701 L344.408364,91.7713281 L346.772,91.5173527 L354.017454,92.1422417 L373.919272,88.7747849 L377.22291,87.2545873 L379.553818,84.8610071 L381.612,81.7932047 L383.097454,78.5372047 L383.410182,73.0776491 L382.950182,68.8678713 Z" id="Fill-11" fill="#FFFFFF" fill-rule="nonzero"></path>
            <path d="M327.892546,58.7572787 C323.992546,73.0109577 312.805272,71.6168343 310.818,71.6168343 C308.819818,71.6168343 309.719818,68.6239453 309.818,65.9343651 C309.914364,63.2447849 310.50891,44.1966367 310.50891,44.1966367 C321.40891,41.1196985 331.78709,44.5035997 327.892546,58.7572787 Z M324.88709,80.3963405 L315.041636,86.0495751 L304.794364,87.6794021 L297.119818,87.2098219 C297.539818,85.9034021 298.143454,84.8948095 298.936182,84.1529825 L299.556182,83.4422169 L315.854364,82.7442417 L319.881636,81.8123899 L323.498,80.1460195 L326.496182,77.7981183 C326.30891,78.9163405 325.772546,79.7860689 324.88709,80.3963405 Z M295.516182,85.5672047 L295.516182,71.2258219 L294.914364,64.8691305 L295.123454,48.6311553 L295.516182,45.3276491 L296.325272,42.7257725 L300.943454,37.0780195 C301.20709,38.0372787 301.34891,38.9782663 301.365272,39.8918467 L299.556182,80.3963405 L298.541636,82.7442417 L296.921636,84.6426615 L295.516182,85.5672047 Z M335.983454,43.2008343 L333.743454,38.9709577 L330.54709,35.9287355 L326.496182,33.7964393 L321.690728,32.6106121 L310.818,32.8353527 L308.18709,32.6106121 L303.383454,33.7964393 L301.365272,34.7301183 L300.150728,36.8496245 L295.730728,41.7994021 L294.525272,43.9097725 L294.525272,85.0811799 L295.123454,87.9096245 L300.150728,89.0917973 L310.205272,88.3828589 L317.24709,86.5045379 L326.698,80.3963405 L330.316182,74.4891305 L331.925272,72.8574763 L335.158,66.2815257 L336.578,61.0850811 L336.96709,58.2548095 L336.96709,48.8467603 L335.983454,43.2008343 Z" id="Fill-13" fill="#FFFFFF" fill-rule="nonzero"></path>
            <g id="Fill-15-Clipped" transform="translate(156.381818, 0.000000)">
                <mask id="mask-2" fill="white">
                    <use xlink:href="#path-1"></use>
                </mask>
                <g id="path-1"></g>
                <path d="M51.6545454,5.68758518 C51.6181818,9.0075358 50.5981818,40.5973135 50.5981818,40.5973135 L48.4763636,44.9313383 L45.44,45.1432889 C46.1509092,44.5037827 46.6727272,43.6377087 47.2381818,42.7716345 L48.6236364,7.99346172 L50.04,2.29272098 L52.6727272,2.64536296 C52.1345454,3.36160988 51.6763636,4.37020248 51.6545454,5.68758518 Z M46.8654546,88.8635851 C45.2763636,88.6973135 44.4509092,87.7819061 44.3836364,86.1593877 L43.7709092,59.7916345 C45.4054546,59.6984493 46.369091,59.6655605 46.369091,59.6655605 L46.9145454,88.8434865 L46.8654546,88.8635851 Z M6.11636364,47.1495111 C4.93636364,48.4632395 4.79454546,49.4754865 4.79454546,49.4754865 L5.68545454,58.8871901 L3.91090908,59.0900049 L2.85272728,57.9443753 L2.4890909,51.0961777 L3.54727272,46.1427457 L8.09636364,36.6268939 L9.85090908,31.2532147 L25.74,5.32398024 L27.6127272,5.32398024 C26.1709092,8.17435062 23.0545454,14.1564741 20.9890909,17.2991901 C18.2163636,21.5199309 14.4218182,30.6941037 12.6727273,34.1967703 C10.9290909,37.6884741 7.28181818,45.8357827 6.11636364,47.1495111 Z M71.7545454,46.5703013 C71.7545454,46.5703013 65.3327272,47.2993383 63.7327272,46.2688197 C62.1218182,45.2510913 62.1218182,38.1178567 62.2672728,30.6941037 C62.4181818,23.2685235 62.5563636,4.05958518 62.5563636,4.05958518 L60.4509092,2.24338766 L57.2472728,1.62763456 L56.3545454,1.1452642 L50.369091,-0.000365432 C48.6545454,1.22931358 47.72,2.74951112 47.5618182,4.59677038 L46.5018182,24.0322765 L46.5018182,38.9218073 L44.3836364,43.8441777 L19.1109091,45.1889679 L19.2363636,43.8021531 C19.2363636,43.8021531 27.4072728,23.1260049 29.0127272,20.6538567 C30.6181818,18.1780543 36.1363636,9.51365926 36.1363636,9.51365926 L37.6163636,5.07000494 L37.4272728,5.0444247 L37.6163636,4.92565926 L24.3036364,2.66911606 L20.809091,10.295684 L9.85090908,28.2183013 L3.17454546,43.4641283 L3.1329106e-15,47.2810667 L1.58545455,62.2820543 L6.90727272,61.8143013 C11.3872727,61.6535111 30.6163636,60.9080297 36.0127272,60.3927703 C38.3163636,60.1698567 40.3509092,60.0182025 41.9927272,59.9030913 L43.3254546,91.9058073 L47.5472728,90.6140049 L56.8672728,89.6602271 L57.6018182,86.8884247 L56.7254546,58.6460049 C56.7254546,58.6460049 66.5,56.3200297 69.1236364,55.4466469 C71.7545454,54.5769185 72.6218182,52.0938073 72.6218182,52.0938073 L71.7545454,46.5703013 Z" id="Fill-15" fill="#FF0000" fill-rule="nonzero" mask="url(#mask-2)"></path>
            </g>
            <path d="M36.2545454,87.5270169 L34.1018182,88.8443997 L27.14,90.2056343 L26.7436364,89.9918565 L27.14,88.8443997 C27.8072728,88.0112145 28.5781818,87.5653873 29.46,87.5270169 L31.98,86.6189183 L36.8218182,86.1767453 L36.2545454,87.5270169 Z M24.030909,88.8443997 L20.349091,85.2595109 L17.2654545,81.2598565 L14.5490909,76.5366467 L14.5490909,72.7251899 C15.1745455,73.3774861 18.72,78.2450417 25.190909,87.3041035 L25.989091,89.7524985 L24.030909,88.8443997 Z M19.3909091,50.0738811 L21.709091,44.9304245 L24.030909,43.3572393 C23.8945454,44.0844491 23.64,44.6928935 23.2636364,45.1679553 L18.7927273,52.1166467 L19.3909091,50.0738811 Z M11.8345455,90.4431651 L9.87636364,91.5668689 L4.45272728,92.2082021 L3.88181818,91.5668689 L4.64181818,90.4431651 L12.2,88.6251405 L12.5981818,89.3066713 L11.8345455,90.4431651 Z M0.965454546,50.5270169 L1.55818182,47.8520541 L3.88181818,43.8048935 L5.04363636,45.6156095 L4.64181818,48.5244491 L4.27818182,89.5314121 L2.92,90.2056343 L3.11818182,89.0764491 L0.965454546,50.5270169 Z M33.9345454,79.2262269 L23.0654546,64.4317083 L23.66,63.0960541 L27.54,57.7022763 L29.8563636,55.4749677 L42.449091,38.4513133 L41.8563636,37.9890417 L25.989091,40.6822763 L20.7436364,44.7093379 L19.3909091,48.0749677 L15.3181818,55.4749677 L13.9527273,44.2635109 L14.7127273,37.7624737 L14.1527273,37.0845973 L4.27818182,39.9970911 L0,49.8491405 L2.13272728,91.1119059 L2.72363636,93.5712639 L12.0381818,92.4384245 L13.5581818,89.3066713 L15.5145455,86.6189183 L14.7127273,82.5827207 L15.3181818,79.6775355 L18.9945455,85.2595109 L23.4636364,89.9918565 L26.18,91.5668689 L33.3363636,90.2056343 C34.5254546,90.0210911 35.5654546,89.5661281 36.4527272,88.8443997 L38.3836364,86.1767453 L39.730909,85.4915603 L38.5727272,83.7228689 L33.9345454,79.2262269 Z" id="Fill-18" fill="#FFFFFF" fill-rule="nonzero"></path>
            <path d="M287.866,76.7908047 C287.87691,76.8565825 287.906,76.9223603 287.95691,76.9753479 C287.906,76.9223603 287.87691,76.8565825 287.866,76.7908047" id="Fill-20" fill="#FFFFFF" fill-rule="nonzero"></path>
            <path d="M286.999454,84.1761873 C287.02491,84.0957923 287.055818,84.0555947 287.074,84.0300145 C287.037636,84.0775207 287.015818,84.1213725 286.999454,84.1761873" id="Fill-22" fill="#FFFFFF" fill-rule="nonzero"></path>
            <path d="M290.591454,37.3184737 C290.427818,37.4043503 290.311454,37.5742763 290.311454,37.7643009 C290.311454,38.2612885 290.07509,38.7674121 289.626,39.1803503 C289.098728,39.6791651 288.380546,39.9696837 287.751454,39.9294861 C286.691454,39.8691899 286.313272,39.1693873 285.769636,38.0237577 C285.629636,37.7094861 285.47691,37.3952145 285.306,37.1083503 C285.178728,36.9091899 284.958728,36.8050417 284.73691,36.8488935 C284.511454,36.9091899 284.340546,37.0937331 284.322364,37.3294367 C284.273272,37.9817331 283.982364,38.8478071 283.527818,39.2388195 C283.338728,39.3904737 283.149636,39.4599059 282.918728,39.4434615 C282.238728,39.3849923 281.298728,37.7643009 281.358728,36.9585231 C281.366,36.6990663 281.200546,36.4651899 280.944182,36.4140293 C280.686,36.3646961 280.429636,36.4999059 280.338728,36.7410911 C280.271454,36.9091899 280.224182,37.0663257 280.17509,37.2234615 C279.887818,38.1041527 279.787818,38.3343751 279.020546,38.2430169 C277.962364,38.1041527 277.769636,36.9859305 277.822364,36.4140293 C277.822364,36.3884491 277.811454,36.3573873 277.804182,36.3318071 L282.378728,28.1168935 C283.273272,28.7381281 284.438728,28.9190169 285.404182,28.5992639 C285.604182,28.5280047 285.749636,28.4366467 285.87509,28.3562515 C286.031454,28.2557577 286.084182,28.2283503 286.146,28.2283503 L286.198728,28.2283503 L290.627818,36.6716589 C290.609636,36.8050417 290.609636,37.0133379 290.591454,37.3184737 Z M288.313272,75.7619305 C288.29509,75.8861775 288.278728,76.0232145 288.278728,76.1547701 C288.198728,76.1693873 288.113272,76.2022763 288.05691,76.2424737 C288.022364,76.2808441 287.991454,76.3119059 287.967818,76.3447947 C287.39509,76.5969429 284.669636,77.1396095 284.298728,77.1432639 C284.109636,77.1469183 283.909636,77.1396095 283.727818,77.1323009 C283.940546,76.4726961 284.109636,74.9926961 284.273272,71.3968441 L284.298728,70.7683009 C284.869636,60.8431651 285.386,50.2200541 285.409636,39.5713627 C285.882364,40.2894367 286.53509,40.8978811 287.682364,40.9746219 C288.61691,41.0312639 289.600546,40.6439059 290.342364,39.9514121 C290.39691,39.8911157 290.427818,39.8545725 290.47691,39.7979305 C290.111454,47.1248441 289.211454,65.0785231 288.313272,75.7619305 Z M288.064182,78.2870663 L288.05691,78.2870663 C287.758728,78.3528441 287.513272,78.5063257 287.289636,78.6360541 C287.15509,78.7237577 287.024182,78.8041527 286.91691,78.8461775 C285.909636,79.2591157 284.753272,79.4527947 283.964182,79.5368441 C281.61509,79.8163997 279.464182,79.5898319 277.409636,78.8589677 L277.002364,78.7164491 C276.093272,78.4058319 274.871454,77.9892393 274.489636,77.2273133 C274.466,77.1651899 274.426,77.1249923 274.367818,77.0701775 C274.384182,76.7540787 274.400546,76.4434615 274.41691,76.1145725 C274.41691,75.9464737 274.426,75.7637577 274.440546,75.5865231 C275.224182,76.1584245 276.233272,76.5019305 277.144182,76.7906219 C277.447818,76.8892885 277.720546,76.9861281 277.986,77.0701775 C280.084182,77.8394121 282.39691,78.2450417 284.313272,78.1993627 C284.35509,78.1920541 286.882364,77.8649923 288.162364,77.3680047 C288.138728,77.6822763 288.089636,77.9782763 288.064182,78.2870663 Z M287.658728,81.2927453 L287.658728,81.3018811 C286.807818,82.1606467 284.973272,82.5808935 283.618728,82.8768935 C281.886,83.2660787 279.687818,83.1473133 277.57509,82.5571405 C277.471454,82.5352145 277.35691,82.4950169 277.21691,82.4639553 C276.433272,82.2647947 274.580546,81.7860787 274.538728,81.0460787 C274.531454,80.8469183 274.426,80.6879553 274.258728,80.6002515 C274.27509,79.9552639 274.282364,79.2883503 274.318728,78.5976837 C275.004182,79.1403503 275.922364,79.4527947 276.65691,79.7195603 L277.053272,79.8438071 C279.266,80.6404491 281.571454,80.8706713 284.080546,80.5819799 C284.947818,80.4869677 286.189636,80.2603997 287.311454,79.8163997 C287.504182,79.7433133 287.67691,79.6282021 287.833272,79.5331899 C287.864182,79.5203997 287.891454,79.5021281 287.924182,79.4893379 C287.833272,80.1069183 287.751454,80.7098811 287.658728,81.2927453 Z M287.189636,83.9220293 C287.147818,83.9457825 287.11691,83.9878071 287.082364,84.0243503 C286.933272,84.1522515 286.23691,84.4701775 286.000546,84.5743257 L285.81691,84.6656837 C284.727818,85.1772885 283.73509,85.4312639 282.602364,85.4769429 L282.007818,85.5207947 C280.35691,85.5938811 278.802364,85.6779305 277.233272,85.2211405 L277.167818,85.2101775 C276.249636,84.9470663 274.89509,84.5505725 274.267818,83.8416343 C274.258728,83.3702269 274.246,82.8805479 274.246,82.3762515 C275.011454,82.9737331 276.19509,83.2788689 276.953272,83.4780293 C277.082364,83.5109183 277.200546,83.5438071 277.289636,83.5675603 C279.566,84.2052393 281.953272,84.3258319 283.824182,83.8982763 C284.93691,83.6570911 286.338728,83.3391651 287.420546,82.7526467 C287.33691,83.1546219 287.262364,83.5438071 287.189636,83.9220293 Z M283.31509,91.9944245 C282.166,92.8367453 280.786,93.0486961 279.086,92.6595109 C275.844182,91.9103751 274.664182,89.4784245 274.340546,85.2211405 C275.144182,85.7071651 276.102364,85.9830663 276.87691,86.2078071 L276.944182,86.2315603 C278.678728,86.7303751 280.398728,86.6463257 282.069636,86.5567947 L282.660546,86.5275603 C283.927818,86.4727453 285.033272,86.1822269 286.25509,85.6231157 L286.444182,85.5335849 C286.59509,85.4550169 286.73509,85.3892393 286.85691,85.3362515 C285.993272,88.7183257 284.826,90.8908195 283.31509,91.9944245 Z M282.713272,76.8691899 C282.65509,76.9240047 282.602364,76.9861281 282.587818,77.0628689 C281.333272,76.9386219 279.993272,76.6371405 278.722364,76.2059305 C279.060546,75.9081035 279.282364,74.8702763 279.622364,69.4856343 C279.662364,68.9904737 279.67691,68.5958071 279.69509,68.4350169 C280.091454,64.3366961 280.242364,60.1196095 280.391454,56.0322515 L280.49509,53.0411899 C280.55509,51.5191651 280.671454,49.9788689 280.786,48.4860787 C280.891454,46.9677083 281.007818,45.4018319 281.067818,43.8615355 C281.091454,43.3170417 281.091454,42.7889923 281.091454,42.2609429 C281.091454,41.2687947 281.098728,40.3259799 281.233272,39.3849923 C281.680546,39.9824737 282.238728,40.4392639 282.840546,40.4831157 C283.338728,40.5251405 283.811454,40.3680047 284.21509,40.0336343 C284.264182,39.9769923 284.313272,39.9093873 284.35509,39.8545725 C284.322364,50.3790169 283.818728,60.8851899 283.25691,70.7061775 L283.222364,71.3493379 C283.091454,74.6418811 282.907818,76.5019305 282.713272,76.8691899 Z M277.422364,38.4933379 C277.769636,38.9044491 278.260546,39.1931405 278.893272,39.2826713 C279.482364,39.3521035 279.913272,39.2461281 280.224182,39.0652393 C280.058728,40.1505725 280.040546,41.2158071 280.040546,42.2609429 C280.040546,42.7670663 280.040546,43.2951157 280.018728,43.8195109 C279.960546,45.3433627 279.853272,46.9019305 279.73691,48.4093379 C279.629636,49.9076095 279.504182,51.4625231 279.446,52.9973379 L279.342364,55.9975355 C279.189636,60.0647947 279.049636,64.2672639 278.65691,68.3308689 C278.638728,68.5227207 278.613272,68.8972885 278.582364,69.4198565 C278.498728,70.7683009 278.242364,74.8355603 277.962364,75.4695849 C277.853272,75.5865231 277.804182,75.7619305 277.827818,75.9208935 C277.713272,75.8843503 277.598728,75.8350169 277.464182,75.8021281 C276.45691,75.4695849 275.31509,75.1023257 274.671454,74.4372393 C274.624182,74.3933873 274.567818,74.3495355 274.500546,74.3294367 C275.027818,64.8062763 276.851454,44.7166467 277.422364,38.4933379 Z M284.313272,24.6324985 L285.69691,27.2745725 C285.544182,27.3257331 285.420546,27.4043009 285.313272,27.4737331 C285.222364,27.5267207 285.149636,27.5778811 285.066,27.6089429 C284.378728,27.8409923 283.53691,27.6601035 282.902364,27.1795603 L284.313272,24.6324985 Z M291.61691,36.3117083 L284.791454,23.2803997 C284.702364,23.1214367 284.527818,23.0081527 284.340546,23.0008441 C284.147818,23.0008441 283.964182,23.1086467 283.867818,23.2676095 L276.61509,36.3043997 C276.591454,36.3665231 276.566,36.4377825 276.566,36.5126961 C276.529636,36.8050417 273.789636,66.0377825 273.358728,76.0688935 C272.964182,85.4696343 272.666,92.2575355 278.844182,93.6863751 C280.83691,94.1376837 282.544182,93.8508195 283.933272,92.8477083 C286.826,90.7336837 288.551454,85.3325973 289.344182,75.8404985 C290.493272,62.2299799 291.660546,36.8434121 291.67509,36.5839553 C291.67509,36.4889429 291.660546,36.4030663 291.61691,36.3117083 Z" id="Fill-24" fill="#FFFFFF" fill-rule="nonzero"></path>
            <path d="M61.2936364,96.0026663 C60.300909,95.5842467 59.1281818,95.5897281 58.2354546,96.1049873 C58.0645454,96.2091355 57.93,96.3425183 57.8227272,96.4302219 C57.6881818,96.5617775 57.65,96.6019751 57.5827272,96.6056293 C57.5663636,96.6056293 57.5481818,96.6147651 57.5336364,96.6202467 L51.5354546,89.2001479 C51.51,89.0759009 51.4827272,88.8621231 51.4372728,88.5734319 C51.580909,88.4491849 51.660909,88.2701231 51.6172728,88.0764441 C51.5245454,87.5849379 51.6681818,87.0495799 52.0172728,86.5434565 C52.4372728,85.9587651 53.0863636,85.5348639 53.71,85.4562961 C54.759091,85.2991603 55.27,85.9149133 56.0281818,86.9344689 C56.2354546,87.2103701 56.439091,87.4862713 56.6663636,87.7475553 C56.8136364,87.9211355 57.0627272,87.9631603 57.2754546,87.8772837 C57.479091,87.7822713 57.61,87.5611849 57.5736364,87.3291355 C57.499091,86.6896293 57.6154546,85.7760491 57.99,85.2991603 C58.1372728,85.1127899 58.319091,85.0122961 58.5354546,84.9885429 C59.23,84.9154565 60.4572728,86.3150615 60.5663636,87.1117035 C60.5954546,87.3693331 60.820909,87.5611849 61.0736364,87.5666663 C61.3318182,87.5666663 61.560909,87.3802961 61.6027272,87.1299751 C61.63,86.9545677 61.6481818,86.7828145 61.6663636,86.6256787 C61.7772728,85.6956541 61.8336364,85.4562961 62.5972728,85.3886911 C63.6718182,85.3156047 64.0772728,86.3808393 64.1445454,86.9545677 C64.1463636,86.9764935 64.1645454,87.0020737 64.1681818,87.0313083 L61.2936364,96.0026663 Z M51.07,86.1085923 C49.97,78.8529379 47.3318182,61.0746663 46.1172728,50.4332837 C46.0972728,50.2999009 46.0881818,50.1646911 46.0736364,50.0276541 C46.140909,50.0075553 46.2063636,49.9618763 46.2627272,49.8960985 C46.2972728,49.8668639 46.3154546,49.8284935 46.33,49.7974319 C46.800909,49.4502713 49.4027272,48.3612837 49.7827272,48.2808885 C49.9554546,48.2352095 50.1554546,48.2187651 50.3372728,48.1895305 C50.2536364,48.8820245 50.379091,50.3638515 50.9354546,53.9505677 L51.0227272,54.5370861 C52.4172728,64.3653825 54.0027272,74.8642467 56.0736364,85.3521479 C55.4754546,84.7327405 54.7063636,84.2540245 53.5681818,84.4184689 C52.6518182,84.5500245 51.7518182,85.1127899 51.1554546,85.9441479 C51.1263636,85.9898269 51.1081818,86.0501231 51.07,86.1085923 Z M45.8645454,47.9026663 C46.140909,47.7857281 46.3536364,47.5792589 46.55,47.3965429 C46.660909,47.2997035 46.7754546,47.1955553 46.8772728,47.1261231 C47.7736364,46.5304689 48.8736364,46.1102219 49.63,45.8708639 C51.880909,45.1326911 54.03,44.9298763 56.1936364,45.2459751 L56.6245454,45.3117527 C57.5663636,45.4268639 58.859091,45.6040985 59.37,46.2764935 C59.4136364,46.3276541 59.4663636,46.3733331 59.53,46.4080491 C59.5681818,46.7278021 59.6263636,47.0329379 59.67,47.3654811 C59.6972728,47.5262713 59.7227272,47.7071603 59.7463636,47.8679503 C58.8663636,47.4732837 57.8154546,47.3417281 56.8627272,47.2302713 C56.5518182,47.1919009 56.2554546,47.1535305 55.979091,47.1261231 C53.7718182,46.7789627 51.4245454,46.8374319 49.5427272,47.2540245 C49.5154546,47.2668145 47.09,48.0890367 45.940909,48.8144195 C45.9154546,48.5001479 45.8881818,48.1968393 45.8645454,47.9026663 Z M45.77,46.6876047 C45.720909,46.0608885 45.6863636,45.4579257 45.6536364,44.8750615 L45.660909,44.8750615 C46.3227272,43.8518515 48.0518182,43.0862713 49.320909,42.5253331 C50.940909,41.8072589 53.1136364,41.4929873 55.300909,41.6574319 C55.41,41.6683947 55.5318182,41.6757035 55.67,41.6848393 C56.4845454,41.7232095 58.3918182,41.8273577 58.5736364,42.5582219 C58.619091,42.7482467 58.7627272,42.8798021 58.939091,42.9254811 C59.0536364,43.5649873 59.17,44.2172837 59.2845454,44.9061231 C58.49,44.5041479 57.5336364,44.3762467 56.7572728,44.2739257 L56.3518182,44.2172837 C54.0136364,43.8756047 51.7172728,44.0839009 49.300909,44.8750615 C48.4827272,45.1326911 47.299091,45.5949627 46.2972728,46.2509133 C46.1227272,46.3696787 45.960909,46.5067157 45.839091,46.6382713 C45.8118182,46.6638515 45.7863636,46.6711603 45.77,46.6876047 Z M45.6118182,42.2019257 C45.6481818,42.1708639 45.67,42.1288393 45.6954546,42.0868145 C45.819091,41.9223701 46.439091,41.4783701 46.6445454,41.3267157 L46.8081818,41.2061231 C47.7736364,40.4990121 48.7027272,40.0458763 49.79,39.7772837 L50.3754546,39.6292837 C51.9754546,39.2254811 53.4881818,38.8326417 55.1118182,38.9696787 L55.1736364,38.9842961 C56.120909,39.0683453 57.5336364,39.1798021 58.29,39.7480491 C58.4063636,40.2103207 58.5045454,40.6926911 58.6063636,41.1896787 C57.740909,40.7511603 56.5136364,40.6835553 55.7245454,40.6378763 C55.59,40.6214319 55.4754546,40.6196047 55.3845454,40.6159503 C54.0027272,40.5063207 51.320909,40.5044935 48.899091,41.5679009 C47.8663636,42.0210367 46.5536364,42.6039009 45.6118182,43.3932343 C45.6045454,42.9839503 45.6045454,42.5911109 45.6118182,42.2019257 Z M47.8172728,33.5338763 C48.779091,32.4832589 50.099091,32.0008885 51.8427272,32.0465677 C55.1627272,32.1434071 56.8027272,34.2921479 57.9481818,38.4105677 C57.079091,38.0981231 56.0718182,38.0067651 55.2627272,37.9336787 L55.1972728,37.9263701 C53.3936364,37.7820245 51.7336364,38.2059257 50.1136364,38.6188639 L49.5427272,38.7577281 C48.3027272,39.0793083 47.2718182,39.5580245 46.1827272,40.3601479 L46.0263636,40.4825677 C45.8881818,40.5775799 45.77,40.6780737 45.6536364,40.7602961 C45.839091,37.2722467 46.5536364,34.9005923 47.8172728,33.5338763 Z M51.3863636,48.2352095 C51.4372728,48.1639503 51.4627272,48.1054811 51.4681818,48.0232589 C52.7245454,47.9063207 54.09,47.9373825 55.43,48.1054811 C55.1554546,48.4727405 55.1354546,49.5251849 55.860909,54.8422219 C55.9318182,55.3556541 55.979091,55.7667651 56.000909,55.9202467 C56.4154546,59.9948145 57.0972728,64.1351603 57.7518182,68.1402961 L58.2445454,71.1770367 C58.479091,72.6753083 58.6736364,74.2119503 58.8663636,75.7010861 C59.0463636,77.2103207 59.239091,78.7615799 59.4881818,80.2927405 C59.5681818,80.8153083 59.679091,81.3451849 59.7827272,81.8622713 C59.97,82.8251849 60.1536364,83.7588639 60.2081818,84.7108145 C59.6536364,84.2119997 59.0118182,83.8721479 58.4154546,83.9379257 C57.9154546,84.0073577 57.4863636,84.2503701 57.159091,84.6559997 C57.120909,84.7217775 57.0972728,84.7948639 57.0463636,84.8606417 C55.0063636,74.4988145 53.4427272,64.1095799 52.0627272,54.3872589 L51.9736364,53.7970861 C51.339091,49.7152095 51.3045454,48.5184195 51.3863636,48.2352095 Z M59.9354546,49.1286911 C61.2863636,58.5696293 63.4536364,78.6208885 64.119091,84.8295799 C63.6881818,84.5006911 63.160909,84.3033577 62.5227272,84.3508639 C61.9281818,84.4001973 61.5318182,84.5737775 61.259091,84.8295799 C61.2118182,83.7405923 61.0118182,82.6808393 60.8027272,81.6521479 C60.7063636,81.1515059 60.6081818,80.6417281 60.5245454,80.1319503 C60.2736364,78.6208885 60.0863636,77.0678021 59.900909,75.5713577 C59.7118182,74.0730861 59.5154546,72.5291355 59.2772728,71.0052837 L58.7881818,67.9740245 C58.1336364,63.9889873 57.4572728,59.8559503 57.0463636,55.8160985 C57.020909,55.6352095 56.9681818,55.2533331 56.8972728,54.7088393 C56.7154546,53.3731849 56.17,49.3570861 56.320909,48.6865183 C56.4118182,48.5421725 56.4154546,48.3722467 56.360909,48.2187651 C56.4845454,48.2279009 56.6063636,48.2571355 56.739091,48.2644441 C57.79,48.3850367 58.9827272,48.5257281 59.7518182,49.0464689 C59.8136364,49.0884935 59.8663636,49.1122467 59.9354546,49.1286911 Z M60.7063636,47.1992095 C59.2572728,37.9080985 58.2063636,31.1823207 51.860909,31.0014319 C49.8336364,30.9393083 48.2081818,31.5532343 47.05,32.8176293 C44.620909,35.4487405 43.9918182,41.0800491 45.0827272,50.5557035 C46.620909,64.1168885 50.4772728,89.2531355 50.519091,89.4998021 C50.5354546,89.5966417 50.57,89.6825183 50.6354546,89.7446417 L59.880909,101.186321 C59.9954546,101.337975 60.199091,101.407407 60.3845454,101.378173 C60.5681818,101.337975 60.73,101.204592 60.779091,101.021876 L65.3336364,86.8266663 C65.3572728,86.7554071 65.3663636,86.6768393 65.3572728,86.6019257 C65.3227272,86.3150615 62.2518182,57.1261725 60.7063636,47.1992095 Z" id="Fill-26" fill="#FFFFFF" fill-rule="nonzero"></path>
            <path d="M60.0863636,99.7801379 L58.21,97.4706071 C58.3463636,97.3792491 58.4572728,97.2732737 58.55,97.1873973 C58.6281818,97.1143109 58.6972728,97.0576689 58.7627272,97.0046811 C59.400909,96.6465577 60.2518182,96.6520393 60.979091,97.0046811 L60.0863636,99.7801379 Z" id="Fill-28" fill="#FFFFFF" fill-rule="nonzero"></path>
            <path d="M102.285273,67.0134861 C98.3852728,81.2635109 87.208909,79.8766961 85.2016364,79.8766961 C83.2107272,79.8766961 84.1107272,76.8728441 84.208909,74.1887453 C84.2998182,71.4991651 84.908909,52.4638071 84.908909,52.4638071 C95.7925454,49.3649429 106.178,52.7561527 102.285273,67.0134861 Z M99.2707272,88.6488935 L89.428909,94.3057825 L79.188909,95.9392639 L71.5125454,95.4514121 C71.9325454,94.1650911 72.538,93.1418811 73.328909,92.4073627 L73.948909,91.7057331 L90.2398182,90.9986219 L94.2652728,90.0612885 L97.888909,88.4022269 L100.890727,86.0488441 C100.699818,87.1634121 100.163455,88.0294861 99.2707272,88.6488935 Z M69.9052728,93.8252393 L69.9052728,79.4747207 L69.307091,73.1162021 L69.5107272,56.8891899 L69.9052728,53.5802021 L70.728909,50.9710169 L75.338,45.3360541 C75.6016364,46.2934861 75.7416364,47.2326467 75.758,48.1553627 L73.948909,88.6488935 L72.927091,90.9986219 L71.3125454,92.8915603 L69.9052728,93.8252393 Z M110.368909,51.4533873 L108.134364,47.2180293 L104.930727,44.1758071 L100.890727,42.0563009 L96.0816364,40.8704737 L85.208909,41.0988689 L82.5761818,40.8704737 L77.768909,42.0563009 L75.758,42.9844985 L74.5398182,45.0985231 L70.1234546,50.0483009 L68.9143636,52.1732885 L68.9143636,93.3410417 L69.5107272,96.1640047 L74.5398182,97.3461775 L84.5907272,96.6463751 L91.638,94.7552639 L101.092545,88.6488935 L104.708909,82.7526467 L106.321636,81.1118565 L109.539818,74.5322515 L110.970727,69.3358071 L111.358,66.5110169 L111.358,57.1084491 L110.368909,51.4533873 Z" id="Fill-30" fill="#FFFFFF" fill-rule="nonzero"></path>
        </g>
    </g>
</svg>