<?xml version="1.0" encoding="UTF-8"?>
<svg width="139px" height="159px" viewBox="0 0 139 159" version="1.1" xmlns="http://www.w3.org/2000/svg" xmlns:xlink="http://www.w3.org/1999/xlink">
    <title>Shape</title>
    <g id="Page-1" stroke="none" stroke-width="1" fill="none" fill-rule="evenodd">
        <g id="bus.doubledecker.fill" transform="translate(-1974.000000, -1439.000000)" fill="#ffffff" fill-rule="nonzero">
            <g id="Symbols" transform="translate(499.384500, 603.324200)">
                <g id="Semibold-L" transform="translate(1474.890000, 835.780800)">
                    <path d="M9.8144,149.0727 C9.8144,151.872233 10.6689,154.118333 12.3779,155.811 C14.0869,157.503733 16.3411333,158.3501 19.1406,158.3501 L26.7578,158.3501 C29.5572667,158.3501 31.8115,157.503733 33.5205,155.811 C35.2294333,154.118333 36.0839,151.872233 36.0839,149.0727 L36.0839,139.4048 C41.7805667,139.7954 47.347,140.0965 52.7832,140.3081 C58.2194,140.5197 63.6067667,140.6255 68.9453,140.6255 C74.3489,140.6255 79.7606333,140.527833 85.1805,140.3325 C90.6005,140.137167 96.1588333,139.827933 101.8555,139.4048 L101.8555,149.0727 C101.8555,151.872233 102.709833,154.118333 104.4185,155.811 C106.127833,157.503733 108.3985,158.3501 111.2305,158.3501 L118.7985,158.3501 C121.597833,158.3501 123.852167,157.503733 125.5615,155.811 C127.270167,154.118333 128.1245,151.872233 128.1245,149.0727 L128.1245,17.9692 C128.1245,13.5424 126.895833,10.0186667 124.4385,7.398 C121.9805,4.77733333 118.4405,3.14166667 113.8185,2.491 C107.4705,1.677 100.431167,1.05833333 92.7005,0.635 C84.9691667,0.211666667 77.0507667,0 68.9453,0 C60.9374333,0 53.0679667,0.211666667 45.3369,0.635 C37.6057667,1.05833333 30.5338,1.677 24.121,2.491 C19.4986667,3.14166667 15.9586333,4.77733333 13.5009,7.398 C11.0432333,10.0186667 9.8144,13.5424 9.8144,17.9692 L9.8144,149.0727 Z M22.8027,52.979 L22.8027,22.8032 C22.8027,20.6547333 23.3316667,18.9213333 24.3896,17.603 C25.4475333,16.2843333 26.9530667,15.495 28.9062,15.235 C34.9283333,14.4536667 41.3248333,13.8676667 48.0957,13.477 C54.8665,13.0863333 61.8163667,12.891 68.9453,12.891 C76.1067667,12.891 83.0811667,13.0943333 89.8685,13.501 C96.6551667,13.9083333 103.0595,14.4863333 109.0815,15.235 C111.034833,15.495 112.5405,16.2843333 113.5985,17.603 C114.6565,18.9213333 115.1855,20.6547333 115.1855,22.8032 L115.1855,52.979 L22.8027,52.979 Z M22.8027,62.6958 L115.1855,62.6958 L115.1855,90.5278 C115.1855,92.7088 114.6565,94.4584667 113.5985,95.7768 C112.5405,97.0952 111.034833,97.8846 109.0815,98.145 C103.320167,98.8936667 97.0378333,99.4552 90.2345,99.8296 C83.4310333,100.203933 76.3346333,100.3911 68.9453,100.3911 C61.5885,100.3911 54.5247,100.203933 47.7539,99.8296 C40.9830333,99.4552 34.7004667,98.8936667 28.9062,98.145 C26.9530667,97.8846 25.4475333,97.0952 24.3896,95.7768 C23.3316667,94.4584667 22.8027,92.7088 22.8027,90.5278 L22.8027,62.6958 Z M33.5937,125.78172 C31.4452333,125.78172 29.6304667,125.04116 28.1494,123.56004 C26.6682667,122.07892 25.9277,120.280417 25.9277,118.16453 C25.9277,115.983543 26.6682667,114.160627 28.1494,112.69578 C29.6304667,111.23094 31.4452333,110.49852 33.5937,110.49852 C35.7421667,110.49852 37.5488,111.23094 39.0136,112.69578 C40.4784667,114.160627 41.2109,115.983543 41.2109,118.16453 C41.2109,120.280417 40.4784667,122.07892 39.0136,123.56004 C37.5488,125.04116 35.7421667,125.78172 33.5937,125.78172 Z M57.1289,123.68211 C55.5013,123.68211 54.1585,123.15314 53.1005,122.0952 C52.0425667,121.037253 51.5136,119.69448 51.5136,118.06688 C51.5136,116.471827 52.0344333,115.153467 53.0761,114.1118 C54.1177667,113.070133 55.4687,112.5493 57.1289,112.5493 L80.8105,112.5493 C82.4706333,112.5493 83.8296333,113.070133 84.8875,114.1118 C85.9455,115.153467 86.4745,116.471827 86.4745,118.06688 C86.4745,119.69448 85.9375,121.037253 84.8635,122.0952 C83.7891,123.15314 82.4381,123.68211 80.8105,123.68211 L57.1289,123.68211 Z M104.4435,125.78172 C102.294833,125.78172 100.488167,125.04116 99.0235,123.56004 C97.5588333,122.07892 96.8265,120.280417 96.8265,118.16453 C96.8265,115.983543 97.5588333,114.160627 99.0235,112.69578 C100.488167,111.23094 102.294833,110.49852 104.4435,110.49852 C106.5915,110.49852 108.398167,111.23094 109.8635,112.69578 C111.328167,114.160627 112.0605,115.983543 112.0605,118.16453 C112.0605,120.280417 111.328167,122.07892 109.8635,123.56004 C108.398167,125.04116 106.5915,125.78172 104.4435,125.78172 Z M14.746,77.5395 L14.746,42.0903 L6.8847,42.0903 C4.8665,42.0903 3.2145,42.6843667 1.9287,43.8725 C0.6429,45.0607 3.55271368e-15,46.6150667 3.55271368e-15,48.5356 L3.55271368e-15,71.0942 C3.55271368e-15,73.0148 0.6429,74.5691667 1.9287,75.7573 C3.2145,76.9454333 4.8665,77.5395 6.8847,77.5395 L14.746,77.5395 Z M123.2425,77.5395 L131.1035,77.5395 C133.1215,77.5395 134.7735,76.9454333 136.0595,75.7573 C137.3455,74.5691667 137.9885,73.0148 137.9885,71.0942 L137.9885,48.5356 C137.9885,46.6150667 137.3455,45.0607 136.0595,43.8725 C134.7735,42.6843667 133.1215,42.0903 131.1035,42.0903 L123.2425,42.0903 L123.2425,77.5395 Z" id="Shape"></path>
                </g>
            </g>
        </g>
    </g>
</svg>