<?xml version="1.0" encoding="UTF-8"?>
<svg width="501px" height="90px" viewBox="0 0 501 90" version="1.1" xmlns="http://www.w3.org/2000/svg" xmlns:xlink="http://www.w3.org/1999/xlink">
    <title>Silentmode_Logo_SIDE_WhiteSVG</title>
    <g id="Page-1" stroke="none" stroke-width="1" fill="none" fill-rule="evenodd">
        <g id="Silentmode_Logo_SIDE_WhiteSVG" transform="translate(0.530608, 0.478203)" fill="#FFFFFF" fill-rule="nonzero">
            <path d="M137.249392,32.6317969 C135.159392,30.0517969 132.449392,29.4317969 129.179392,29.4317969 C124.449392,29.4317969 121.739392,32.3517969 121.739392,34.8517969 C121.739392,37.5017969 123.959392,38.0517969 125.979392,38.6117969 L129.739392,39.6117969 C138.429392,41.8417969 141.279392,45.8717969 141.279392,52.9717969 C141.279392,64.9717969 131.339392,69.7317969 120.769392,69.7317969 C112.489392,69.7317969 107.549392,67.8517969 103.239392,62.9117969 L111.589392,55.6117969 C114.019392,58.3917969 117.499392,59.5017969 121.809392,59.5017969 C126.329392,59.5017969 129.669392,57.0017969 129.669392,54.1517969 C129.669392,51.5017969 128.209392,50.6017969 125.499392,49.9117969 L121.739392,48.9117969 C111.739392,46.3417969 110.189392,40.5717969 110.189392,36.7417969 C110.189392,25.8917969 118.609392,19.3517969 130.499392,19.3517969 C136.689392,19.3517969 142.189392,21.5117969 145.319392,25.5417969 L137.249392,32.6317969 Z M151.989392,69.2817969 L140.469392,69.2817969 L150.409392,19.7617969 L161.959392,19.7617969 L151.989392,69.2817969 Z M189.059392,69.2817969 L157.349392,69.2817969 L167.289392,19.7617969 L178.839392,19.7617969 L170.979392,59.1217969 L191.079392,59.1217969 L189.059392,69.2817969 Z M231.409392,29.9217969 L211.039392,29.9217969 L209.159392,39.2317969 L226.749392,39.2317969 L224.749392,49.3917969 L207.149392,49.3917969 L205.149392,59.1217969 L225.949392,59.1217969 L223.949392,69.2817969 L191.559392,69.2817969 L201.469392,19.7617969 L233.469392,19.7617969 L231.409392,29.9217969 Z M264.659392,69.2817969 L255.059392,69.2817969 L244.559392,43.5217969 L239.339392,69.2517969 L227.799392,69.2517969 L237.739392,19.7317969 L247.339392,19.7317969 L257.909392,45.5217969 L263.059392,19.7217969 L274.599392,19.7217969 L264.659392,69.2817969 Z M309.719392,29.9817969 L298.389392,29.9817969 L290.529392,69.2817969 L278.979392,69.2817969 L286.839392,29.9817969 L275.019392,29.9817969 L277.099392,19.7617969 L311.809392,19.7617969 L309.719392,29.9817969 Z M348.469392,69.2817969 L336.919392,69.2817969 L341.779392,44.8717969 L332.949392,57.1117969 L325.579392,57.1117969 L321.059392,44.8717969 L316.119392,69.2817969 L304.579392,69.2817969 L314.519392,19.7617969 L325.299392,19.7617969 L331.629392,41.6017969 L347.069392,19.7617969 L358.399392,19.7617969 L348.469392,69.2817969 Z M392.969392,44.5217969 C391.229392,53.1417969 389.909392,59.4017969 385.319392,63.9917969 C381.539886,67.6238298 376.511066,69.6675706 371.269392,69.7017969 C361.049392,69.7017969 355.689392,62.7017969 355.689392,55.2317969 C355.860677,51.6258562 356.349232,48.0420087 357.149392,44.5217969 C358.889392,35.9017969 360.209392,29.6417969 364.799392,25.0517969 C368.580028,21.4215067 373.608122,19.3780608 378.849392,19.3417969 C389.079392,19.3417969 394.429392,26.3417969 394.429392,33.8117969 C394.258106,37.4177376 393.769551,41.001585 392.969392,44.5217969 Z M377.879392,29.5217969 C375.955463,29.5722534 374.141216,30.4285781 372.879392,31.8817969 C371.349392,33.5517969 370.449392,36.1217969 368.709392,44.5417969 C368.012907,47.7485175 367.571527,51.0053698 367.389392,54.2817969 C367.389392,57.6817969 369.469392,59.5617969 372.249392,59.5617969 C374.17332,59.5113404 375.987567,58.6550156 377.249392,57.2017969 C378.779392,55.5317969 379.689392,52.9617969 381.429392,44.5417969 C382.120975,41.3342153 382.562303,38.0777495 382.749392,34.8017969 C382.749392,31.3817969 380.659392,29.5217969 377.879392,29.5217969 Z M431.879392,44.5217969 C429.439392,56.9017969 428.399392,60.0317969 424.229392,64.2017969 C420.889392,67.5417969 416.159392,69.2817969 410.109392,69.2817969 L391.859392,69.2817969 L401.799392,19.7617969 L418.469392,19.7617969 C427.579392,19.7617969 433.469392,24.7617969 433.469392,33.8117969 C433.469392,35.8317969 433.099392,37.9817969 431.849392,44.5217969 L431.879392,44.5217969 Z M416.469392,29.9217969 L411.319392,29.9217969 L405.469392,59.1217969 L410.539392,59.1217969 C412.691814,59.2231472 414.788225,58.4179514 416.319392,56.9017969 C417.779392,55.4417969 418.539392,53.5617969 420.319392,44.5217969 C421.04223,41.3621982 421.530229,38.1534338 421.779392,34.9217969 C421.759392,31.1717969 419.259392,29.9217969 416.469392,29.9217969 Z M470.469392,29.9217969 L450.139392,29.9217969 L448.259392,39.2317969 L465.849392,39.2317969 L463.849392,49.3917969 L446.249392,49.3917969 L444.299392,59.1217969 L465.099392,59.1217969 L463.099392,69.2817969 L430.659392,69.2817969 L440.609392,19.7617969 L472.529392,19.7617969 L470.469392,29.9217969 Z M487.019392,22.5217969 L484.019392,22.5217969 L481.909392,33.0117969 L478.829392,33.0117969 L480.909392,22.5217969 L477.749392,22.5217969 L478.309392,19.8017969 L487.579392,19.8017969 L487.019392,22.5217969 Z M497.359392,33.0317969 L494.269392,33.0317969 L495.579392,26.5117969 L493.219392,29.7817969 L491.219392,29.7817969 L490.039392,26.5217969 L488.719392,33.0417969 L485.629392,33.0417969 L488.299392,19.8117969 L491.179392,19.8117969 L492.869392,25.6517969 L496.989392,19.8217969 L499.989392,19.8217969 L497.359392,33.0317969 Z" id="Shape"></path>
            <path d="M63.1093916,88.6317969 C64.7132841,88.8891591 66.3349835,89.0195638 67.9593916,89.0217969 C75.8088212,89.1074372 83.2808778,85.659643 88.3093916,79.6317969 C93.9493916,72.9117969 101.759392,56.8617969 90.6193916,24.6317969 C86.2893916,12.0817969 79.2393916,4.23179689 69.6793916,1.30179689 C50.1893916,-4.69820311 27.4393916,11.9317969 26.0793916,12.9417969 C6.46939158,26.3317969 -2.19060842,39.2917969 0.469391579,51.4517969 C5.66939158,74.7317969 51.1993916,86.7017969 63.1093916,88.6317969 Z M34.3593916,14.0217969 C35.3593916,13.3717969 52.2593916,2.59179689 66.7193916,6.46179689 C73.8193916,8.37179689 79.0493916,13.4617969 82.2693916,21.6117969 C90.5293916,42.5317969 84.7393916,52.9517969 80.5493916,57.3117969 C76.5631588,61.332393 71.0997196,63.538017 65.4393916,63.4117969 C64.2381349,63.4087147 63.0385565,63.3218371 61.8493916,63.1517969 C53.0093916,61.9017969 19.2093916,54.1517969 15.3793916,39.0217969 C13.3793916,31.1217969 19.7693916,22.7117969 34.3593916,14.0217969 Z" id="Shape"></path>
        </g>
    </g>
</svg>